<svg xmlns="http://www.w3.org/2000/svg" height="20" viewBox="0 96 960 960" width="20"><path d="M263.717 960Q234 960 213 938.85T192 888V504q0-29.7 21.15-50.85Q234.3 432 264 432h24v-96q0-79.68 56.226-135.84t136-56.16Q560 144 616 200.16T672 336v96h24q29.7 0 50.85 21.15Q768 474.3 768 504v384q0 29.7-21.162 50.85Q725.676 960 695.96 960H263.717Zm.283-72h432V504H264v384Zm216.212-120Q510 768 531 746.788q21-21.213 21-51Q552 666 530.788 645q-21.213-21-51-21Q450 624 429 645.212q-21 21.213-21 51Q408 726 429.212 747q21.213 21 51 21ZM360 432h240v-96q0-50-35-85t-85-35q-50 0-85 35t-35 85v96Zm-96 456V504v384Z"/></svg>